<?xml version="1.0" standalone="no"?>
<!DOCTYPE svg PUBLIC "-//W3C//DTD SVG 20010904//EN"
 "http://www.w3.org/TR/2001/REC-SVG-20010904/DTD/svg10.dtd">
<svg version="1.0" xmlns="http://www.w3.org/2000/svg"
 width="1024.000000pt" height="1024.000000pt" viewBox="0 0 1024.000000 1024.000000"
 preserveAspectRatio="xMidYMid meet">

<g transform="translate(0.000000,1024.000000) scale(0.100000,-0.100000)"
fill="#000000" stroke="none">
<path d="M4918 9464 c-4 -4 -47 -10 -95 -15 -48 -4 -110 -13 -138 -19 -27 -5
-77 -15 -110 -20 -72 -11 -136 -24 -190 -40 -22 -6 -52 -14 -68 -17 -15 -3
-30 -9 -33 -14 -3 -5 -14 -9 -25 -9 -10 0 -27 -4 -37 -9 -9 -5 -28 -13 -42
-18 -62 -25 -80 -33 -155 -70 -235 -117 -398 -227 -604 -407 -189 -167 -400
-441 -539 -702 -68 -128 -172 -394 -172 -440 0 -10 -7 -37 -16 -60 -25 -65
-50 -72 -229 -63 -261 13 -428 11 -468 -6 -73 -30 -67 179 -67 -2218 0 -1622
3 -2164 12 -2180 6 -12 18 -27 27 -34 13 -10 705 -12 3162 -13 l3146 0 27 26
26 27 0 2133 c0 1476 -3 2148 -11 2183 -6 27 -18 56 -26 63 -13 10 -90 13
-351 14 l-334 1 -19 24 c-10 13 -19 35 -19 48 0 26 -16 83 -31 113 -5 10 -9
26 -9 36 0 10 -4 22 -8 28 -5 5 -19 36 -31 69 -25 64 -35 88 -105 235 -54 114
-84 166 -140 241 -22 31 -70 98 -106 150 -115 165 -369 412 -519 504 -9 6 -54
35 -101 66 -152 99 -423 239 -464 239 -8 0 -18 5 -21 10 -3 6 -19 10 -35 10
-16 0 -31 4 -34 9 -3 5 -18 11 -33 14 -16 3 -46 11 -68 17 -119 34 -250 59
-420 81 -96 12 -518 23 -527 13z m442 -173 c270 -27 565 -96 720 -168 213 -99
395 -211 545 -334 115 -94 445 -438 445 -463 0 -4 14 -27 30 -51 17 -24 30
-46 30 -50 0 -4 14 -26 30 -50 17 -24 30 -48 30 -54 0 -6 11 -30 25 -53 14
-24 41 -77 61 -118 19 -41 43 -93 54 -115 50 -104 84 -232 121 -445 7 -36 13
-224 16 -423 l4 -357 24 -16 c21 -14 50 -16 191 -12 l166 4 24 27 c15 18 24
41 24 63 0 51 -42 74 -140 75 -117 1 -111 -8 -114 154 -2 77 -7 215 -11 306
l-8 166 33 6 c18 4 132 7 254 7 l222 0 17 -29 c15 -26 17 -65 17 -358 -1 -180
-5 -386 -10 -458 -5 -83 -5 -145 2 -171 8 -33 6 -48 -6 -73 l-17 -31 -459 0
-460 0 -14 23 c-11 18 -14 98 -15 442 -1 450 -8 535 -59 725 -8 30 -17 67 -19
83 -3 15 -9 30 -14 33 -5 3 -9 16 -9 29 0 13 -4 27 -10 30 -5 3 -10 13 -10 21
0 35 -137 310 -207 416 -179 271 -454 529 -715 673 -129 71 -290 145 -316 145
-10 0 -22 4 -27 8 -6 5 -30 14 -55 21 -25 7 -54 17 -65 21 -38 16 -154 38
-275 52 -124 14 -475 14 -565 0 -65 -10 -95 -16 -215 -40 -51 -11 -137 -38
-162 -52 -10 -6 -29 -10 -42 -10 -14 0 -28 -4 -31 -10 -3 -5 -14 -10 -24 -10
-10 0 -47 -14 -82 -31 -35 -18 -75 -37 -89 -43 -21 -9 -96 -52 -162 -91 -157
-95 -427 -340 -545 -495 -50 -66 -174 -263 -207 -328 -56 -111 -89 -189 -106
-252 -7 -25 -16 -54 -20 -65 -19 -52 -30 -94 -30 -116 0 -14 -4 -29 -9 -34 -5
-6 -11 -30 -14 -55 -9 -75 -25 -164 -31 -180 -3 -8 -7 -743 -9 -1632 -2 -1156
-6 -1621 -14 -1629 -7 -7 -91 -11 -252 -11 -212 0 -244 2 -260 16 -16 14 -20
39 -25 159 -4 78 -3 156 2 172 l8 30 107 3 c104 3 106 3 131 33 l26 31 -2 441
-3 442 -30 15 c-25 12 -81 15 -320 15 -159 0 -300 4 -312 8 -13 5 -25 18 -28
30 -11 46 0 1046 11 1057 8 8 88 11 254 10 218 0 244 -2 256 -18 10 -13 13
-75 13 -243 1 -214 0 -228 -20 -253 -19 -24 -26 -26 -107 -27 -104 -1 -141
-17 -155 -69 -25 -98 60 -126 303 -99 152 18 140 -20 140 454 0 353 -2 394
-17 406 -13 11 -80 14 -322 16 -168 1 -309 2 -313 3 -5 0 -17 9 -28 20 -19 19
-20 33 -20 394 0 205 3 388 6 405 l7 31 256 0 257 0 18 -30 c15 -27 16 -39 7
-100 -6 -38 -11 -135 -11 -215 0 -142 1 -147 25 -170 13 -14 30 -25 38 -25 29
0 78 23 87 40 6 10 10 85 10 167 0 320 64 602 211 926 172 381 488 735 870
974 333 209 535 271 1109 342 82 10 233 7 380 -8z m1100 -1437 c70 -24 104
-49 128 -94 l22 -42 0 -876 c0 -801 -1 -877 -17 -894 -15 -17 -74 -18 -1461
-18 -1331 0 -1447 1 -1464 17 -17 15 -18 56 -18 902 0 855 1 887 19 917 11 18
36 45 57 60 32 25 49 30 123 35 47 3 644 6 1326 7 1101 2 1245 0 1285 -14z
m1686 -1769 l26 -26 -6 -516 c-5 -400 -9 -521 -19 -536 -12 -19 -25 -20 -227
-18 -118 0 -228 3 -244 7 l-31 5 3 268 3 269 31 6 c17 3 59 6 95 6 77 0 100
11 118 54 34 81 -12 106 -195 106 -90 0 -138 -4 -163 -15 -69 -29 -67 -16 -67
-451 l0 -393 26 -20 c26 -20 38 -21 333 -21 l307 0 17 -29 c16 -28 17 -61 11
-438 -5 -325 -9 -413 -20 -430 -14 -23 -17 -23 -237 -23 -167 1 -226 4 -239
14 -15 11 -18 34 -19 180 0 92 2 171 6 174 4 4 51 9 106 10 92 4 100 6 119 29
20 25 27 79 12 98 -19 27 -68 35 -210 35 -129 0 -151 -3 -179 -20 l-33 -20 0
-304 c0 -292 1 -304 21 -330 l20 -26 314 0 313 0 14 -37 c17 -45 15 -371 -2
-403 -10 -19 -23 -20 -463 -20 -366 1 -455 3 -470 14 -17 13 -18 80 -22 1392
-2 759 -1 1389 2 1401 3 12 12 24 21 26 10 2 216 5 460 6 l442 2 26 -26z
m-3421 -321 c22 -4 37 -18 57 -50 l27 -44 310 0 310 0 20 26 c12 15 21 35 21
45 0 14 11 19 53 24 72 9 1218 0 1240 -10 32 -14 47 -59 47 -145 0 -93 -15
-131 -57 -149 -21 -8 -440 -11 -1633 -9 l-1604 3 -23 34 c-19 29 -23 47 -23
116 0 95 12 138 43 153 23 10 1157 16 1212 6z m411 -574 c19 0 167 -142 203
-195 40 -57 91 -154 91 -171 0 -8 4 -22 9 -32 17 -32 31 -185 21 -227 -5 -22
-10 -95 -10 -161 0 -108 2 -124 21 -148 17 -21 29 -26 66 -26 65 0 112 49 142
148 13 39 26 72 31 72 16 0 80 -67 80 -84 0 -9 4 -24 9 -34 15 -30 28 -66 41
-112 7 -25 16 -56 21 -70 22 -69 19 -311 -6 -425 -28 -124 -149 -284 -286
-376 -85 -57 -121 -70 -134 -49 -3 5 -13 6 -21 3 -14 -5 -15 -3 -4 18 37 69
50 196 28 273 -17 60 -87 161 -183 266 -70 76 -98 115 -135 188 -18 37 -38 62
-47 62 -43 0 -172 -138 -222 -237 -13 -27 -28 -56 -32 -65 -5 -10 -9 -27 -9
-37 0 -11 -4 -22 -9 -25 -30 -19 -31 -247 -1 -321 16 -39 31 -107 26 -112 -19
-19 -73 1 -156 58 -132 89 -202 167 -230 254 -7 22 -16 49 -20 60 -5 11 -13
63 -20 115 -19 159 16 345 100 527 38 80 169 293 181 293 13 0 22 -66 26 -187
3 -91 8 -125 19 -134 8 -6 16 -10 18 -8 2 2 26 51 54 109 29 60 82 148 126
205 79 104 125 187 154 277 13 41 16 84 14 187 -1 117 0 132 14 127 9 -3 22
-6 30 -6z m-2524 -117 c23 -26 25 -566 2 -600 -13 -21 -22 -23 -113 -23 -92 0
-100 -2 -123 -25 l-25 -25 -2 -248 c-1 -272 10 -376 41 -404 18 -16 50 -18
338 -18 l318 0 7 -22 c4 -13 9 -109 11 -214 4 -177 2 -192 -15 -208 -17 -15
-60 -17 -472 -16 -450 0 -454 0 -471 21 -17 20 -18 76 -18 873 0 468 3 868 6
889 l7 37 247 0 c223 0 248 -2 262 -17z"/>
<path d="M5236 7304 c-14 -15 -26 -33 -26 -40 0 -8 -4 -22 -9 -32 -19 -36 -31
-71 -71 -192 -23 -69 -45 -134 -49 -145 -5 -11 -14 -36 -21 -55 -7 -19 -16
-44 -20 -55 -4 -11 -13 -36 -20 -55 -15 -42 -29 -79 -41 -102 -5 -10 -9 -27
-9 -37 0 -11 -4 -23 -10 -26 -5 -3 -10 -19 -10 -35 0 -16 -4 -31 -9 -34 -5 -3
-12 -33 -16 -65 -9 -79 3 -101 55 -101 76 0 85 9 120 122 17 57 81 253 141
435 114 344 127 405 93 430 -29 21 -69 16 -98 -13z"/>
<path d="M4730 7273 c-14 -9 -41 -31 -60 -48 -19 -17 -70 -58 -113 -91 -135
-102 -143 -108 -236 -193 -79 -73 -91 -88 -91 -116 0 -28 8 -39 48 -69 26 -20
77 -62 113 -93 324 -283 337 -292 374 -275 27 12 58 76 50 101 -6 21 -56 68
-190 181 -93 78 -128 112 -157 148 -17 21 -15 23 85 104 56 45 140 113 187
151 47 38 89 75 93 83 13 23 -3 82 -30 109 -30 29 -39 30 -73 8z"/>
<path d="M5503 7248 c-6 -13 -16 -36 -24 -51 -19 -40 -6 -56 141 -181 201
-172 191 -160 177 -197 -7 -19 -41 -55 -87 -92 -105 -86 -252 -223 -266 -250
-10 -17 -9 -27 1 -48 17 -33 60 -61 86 -57 10 2 127 99 259 216 236 209 240
213 240 252 0 34 -6 44 -47 77 -25 21 -93 79 -151 128 -271 232 -306 253 -329
203z"/>
<path d="M3708 2800 c-17 -10 -18 -45 -18 -500 0 -385 3 -490 13 -491 6 -1
121 -1 253 -1 266 1 292 4 397 59 167 88 259 285 227 486 -21 131 -41 193 -83
255 -31 47 -151 142 -179 142 -9 0 -19 4 -22 9 -10 15 -75 22 -281 31 -110 4
-220 10 -245 14 -27 4 -52 2 -62 -4z m456 -203 c61 -14 128 -72 163 -141 24
-45 27 -63 27 -156 0 -95 -2 -111 -28 -163 -31 -64 -82 -112 -141 -133 -56
-19 -238 -19 -255 1 -13 16 -26 478 -15 552 5 33 11 43 28 46 47 9 174 6 221
-6z"/>
<path d="M4780 2796 c-6 -6 -10 -183 -10 -493 0 -449 1 -483 18 -491 9 -4 167
-6 350 -4 l332 4 0 78 c0 62 -3 79 -16 84 -9 3 -103 6 -209 6 -220 0 -241 5
-251 57 -8 40 0 170 11 181 3 4 92 6 196 4 120 -1 197 2 210 9 17 9 19 19 17
82 l-3 72 -199 3 c-247 3 -240 0 -234 119 2 46 8 86 12 90 4 5 107 9 229 9
122 1 225 2 230 3 13 2 8 179 -5 188 -19 12 -666 11 -678 -1z"/>
<path d="M5647 2798 c-22 -12 -21 -38 2 -91 10 -23 24 -62 31 -87 23 -82 71
-225 80 -242 6 -10 10 -27 10 -37 0 -11 5 -23 10 -26 6 -3 10 -17 10 -30 0
-13 5 -27 10 -30 6 -3 10 -17 10 -30 0 -13 5 -27 10 -30 6 -3 10 -15 10 -26 0
-10 4 -27 9 -37 5 -9 14 -37 21 -62 7 -25 16 -53 21 -62 5 -10 9 -27 9 -37 0
-11 5 -23 10 -26 6 -3 10 -17 10 -31 0 -13 4 -32 8 -42 5 -9 15 -30 23 -47
l15 -30 131 -3 c125 -2 133 -1 143 18 12 23 132 385 199 600 23 74 60 189 81
254 22 66 37 122 34 125 -3 3 -44 9 -92 12 -111 9 -132 -1 -151 -67 -21 -79
-33 -118 -42 -139 -4 -11 -10 -31 -13 -45 -2 -14 -10 -43 -16 -65 -7 -22 -14
-55 -17 -73 -3 -18 -9 -35 -14 -38 -5 -3 -9 -16 -9 -29 0 -13 -4 -27 -10 -30
-5 -3 -10 -17 -10 -30 0 -13 -4 -27 -10 -30 -5 -3 -10 -21 -10 -40 0 -19 -4
-37 -10 -40 -5 -3 -10 -13 -10 -22 0 -8 -11 -28 -24 -44 l-24 -28 -20 48 c-22
49 -40 104 -62 181 -6 25 -16 55 -21 68 -5 13 -9 34 -9 47 0 13 -4 27 -10 30
-5 3 -10 16 -10 27 0 20 -12 63 -30 113 -4 11 -13 39 -19 63 -28 105 -36 124
-55 132 -34 12 -181 19 -199 8z"/>
<path d="M5200 1620 c-8 -5 -35 -10 -60 -10 -57 0 -133 -28 -194 -70 -47 -31
-115 -113 -116 -138 0 -7 -4 -20 -9 -30 -30 -57 -39 -289 -16 -412 21 -113
116 -229 230 -280 109 -48 163 -56 269 -37 124 22 250 62 280 90 24 22 24 25
29 228 l4 207 -76 6 c-284 22 -301 21 -319 -19 -15 -34 -15 -88 0 -103 7 -7
42 -12 88 -12 72 0 76 -1 87 -27 20 -48 25 -100 13 -138 -15 -46 -59 -65 -150
-65 -104 0 -182 48 -227 141 -41 86 -45 106 -41 206 5 116 28 174 96 233 58
52 121 67 190 46 73 -21 88 -31 123 -82 25 -37 35 -45 53 -40 11 3 54 11 94
17 49 8 76 17 79 27 8 18 -31 96 -66 135 -43 48 -113 93 -177 116 -63 22 -158
28 -184 11z"/>
<path d="M6950 1620 c-8 -5 -27 -10 -43 -10 -15 0 -35 -4 -45 -8 -9 -5 -38
-19 -63 -31 -60 -29 -121 -89 -150 -149 -23 -48 -28 -60 -48 -123 -13 -42 -15
-268 -2 -301 5 -13 14 -41 20 -63 33 -108 126 -220 216 -260 98 -44 275 -41
372 6 73 35 168 131 205 207 l33 67 0 175 c-1 227 -18 285 -111 375 -56 55
-125 93 -199 110 -53 13 -170 16 -185 5z m188 -211 c40 -22 92 -85 92 -112 0
-7 5 -18 11 -24 7 -7 12 -56 12 -125 1 -98 -3 -123 -23 -174 -13 -32 -33 -73
-46 -90 -49 -67 -176 -95 -247 -55 -71 40 -79 47 -101 96 -37 79 -49 177 -36
276 19 138 60 201 150 228 50 15 140 5 188 -20z"/>
<path d="M1850 1590 c-17 -17 -20 -28 -14 -48 4 -15 9 -214 11 -442 3 -309 7
-416 16 -422 7 -4 102 -8 212 -7 284 0 359 22 463 134 85 92 106 146 110 285
6 177 -22 269 -110 365 -48 53 -137 105 -203 121 -16 3 -91 10 -165 14 -74 4
-172 11 -216 15 -76 7 -83 6 -104 -15z m466 -194 c18 -9 37 -22 42 -29 21 -25
72 -130 72 -147 0 -11 5 -22 10 -25 31 -19 -4 -209 -51 -275 -22 -33 -84 -64
-149 -75 -103 -17 -137 -17 -164 0 l-26 17 0 281 0 280 118 -6 c78 -4 128 -11
148 -21z"/>
<path d="M2820 1595 c-10 -12 -12 -56 -6 -198 4 -100 9 -261 10 -357 3 -170 4
-176 31 -225 39 -72 72 -102 141 -136 59 -28 68 -29 200 -29 150 0 205 11 280
55 54 32 108 94 122 142 7 25 12 160 12 388 1 323 0 350 -16 362 -23 17 -156
17 -172 1 -9 -9 -12 -96 -12 -329 0 -201 -4 -320 -10 -324 -5 -3 -10 -13 -10
-22 0 -9 -12 -31 -26 -50 -75 -98 -251 -78 -311 37 -22 41 -23 49 -23 361 0
370 11 339 -118 339 -59 0 -83 -4 -92 -15z"/>
<path d="M3817 1603 c-4 -3 -7 -212 -7 -463 0 -341 3 -459 12 -468 16 -16 160
-16 176 0 9 9 12 91 13 303 0 216 3 284 11 268 6 -13 16 -23 22 -23 12 0 57
-73 115 -185 17 -33 49 -89 71 -124 22 -34 40 -65 40 -68 0 -2 14 -24 30 -48
17 -24 30 -47 30 -52 0 -5 12 -23 28 -41 27 -32 28 -33 132 -36 58 -2 110 1
116 5 15 12 6 921 -10 931 -21 14 -146 9 -178 -8 l-31 -16 5 -246 c2 -136 2
-258 -1 -270 -6 -22 -11 -18 -54 42 -26 36 -47 68 -47 70 0 6 -119 205 -140
236 -10 14 -28 43 -40 65 -12 22 -31 56 -42 76 -15 26 -31 40 -58 48 -40 12
-182 15 -193 4z"/>
<path d="M5799 1594 c-7 -8 -9 -25 -5 -41 13 -50 17 -504 7 -671 -8 -119 -7
-169 1 -187 l11 -25 316 2 316 3 0 78 c0 68 -2 78 -20 83 -10 4 -97 6 -193 6
-96 0 -185 3 -198 8 -23 9 -24 13 -24 105 0 90 1 96 23 104 12 4 96 6 186 4
112 -2 168 0 177 8 9 8 14 33 14 75 0 77 13 73 -205 78 -88 2 -168 7 -177 11
-15 6 -18 21 -18 95 l0 88 33 5 c17 3 111 4 207 3 96 -1 181 0 188 2 8 3 12
29 12 82 0 52 -4 81 -12 87 -7 4 -151 8 -320 9 -253 2 -309 0 -319 -12z"/>
<path d="M7620 1595 c-10 -12 -11 -107 -7 -443 4 -235 9 -439 13 -453 6 -25 9
-27 87 -32 50 -3 87 0 95 6 11 8 12 69 7 306 -7 288 -7 295 11 271 10 -14 29
-34 41 -45 23 -21 63 -88 63 -106 0 -6 8 -23 19 -37 19 -28 54 -87 78 -133 7
-15 20 -32 28 -39 8 -7 15 -17 15 -22 0 -5 13 -28 28 -51 15 -23 37 -59 47
-80 32 -62 40 -66 145 -67 52 -1 106 -1 119 -1 l23 1 -7 203 c-4 111 -9 316
-10 455 -2 183 -6 256 -15 267 -9 11 -34 15 -95 15 -69 0 -85 -3 -100 -20 -16
-17 -17 -25 -7 -59 18 -58 16 -421 -2 -455 l-13 -27 -30 48 c-17 26 -43 71
-59 98 -15 28 -50 83 -76 123 -26 41 -48 76 -48 79 0 3 -18 32 -40 64 -22 32
-40 64 -40 71 -1 18 -31 54 -57 67 -34 17 -198 14 -213 -4z"/>
</g>
</svg>
